<mxfile host="app.diagrams.net" agent="Mozilla/5.0 (Macintosh; Intel Mac OS X 10_15_7) AppleWebKit/537.36 (KHTML, like Gecko) Chrome/137.0.0.0 Safari/537.36" version="26.2.14">
  <diagram name="第 1 页" id="7g7MjOc2lXQ40YikB6de">
    <mxGraphModel dx="855" dy="800" grid="0" gridSize="10" guides="1" tooltips="1" connect="1" arrows="1" fold="1" page="1" pageScale="1" pageWidth="827" pageHeight="1169" math="0" shadow="0">
      <root>
        <mxCell id="0" />
        <mxCell id="1" parent="0" />
        <mxCell id="FuRZnOC1qH6Nku-hnWcX-3" value="" style="edgeStyle=orthogonalEdgeStyle;rounded=0;orthogonalLoop=1;jettySize=auto;html=1;" edge="1" parent="1" source="FuRZnOC1qH6Nku-hnWcX-1" target="FuRZnOC1qH6Nku-hnWcX-2">
          <mxGeometry relative="1" as="geometry" />
        </mxCell>
        <mxCell id="FuRZnOC1qH6Nku-hnWcX-1" value="风险识别" style="rounded=0;whiteSpace=wrap;html=1;fillColor=#dae8fc;strokeColor=#6c8ebf;" vertex="1" parent="1">
          <mxGeometry x="294" y="131" width="116" height="40" as="geometry" />
        </mxCell>
        <mxCell id="FuRZnOC1qH6Nku-hnWcX-5" value="" style="edgeStyle=orthogonalEdgeStyle;rounded=0;orthogonalLoop=1;jettySize=auto;html=1;" edge="1" parent="1" source="FuRZnOC1qH6Nku-hnWcX-2" target="FuRZnOC1qH6Nku-hnWcX-4">
          <mxGeometry relative="1" as="geometry" />
        </mxCell>
        <mxCell id="FuRZnOC1qH6Nku-hnWcX-2" value="风险分析" style="rounded=0;whiteSpace=wrap;html=1;fillColor=#dae8fc;strokeColor=#6c8ebf;" vertex="1" parent="1">
          <mxGeometry x="294" y="194" width="116" height="40" as="geometry" />
        </mxCell>
        <mxCell id="FuRZnOC1qH6Nku-hnWcX-8" value="" style="edgeStyle=orthogonalEdgeStyle;rounded=0;orthogonalLoop=1;jettySize=auto;html=1;entryX=0.5;entryY=0;entryDx=0;entryDy=0;" edge="1" parent="1" source="FuRZnOC1qH6Nku-hnWcX-4" target="FuRZnOC1qH6Nku-hnWcX-13">
          <mxGeometry relative="1" as="geometry">
            <mxPoint x="352" y="333" as="targetPoint" />
          </mxGeometry>
        </mxCell>
        <mxCell id="FuRZnOC1qH6Nku-hnWcX-4" value="风险评价" style="rounded=0;whiteSpace=wrap;html=1;fillColor=#dae8fc;strokeColor=#6c8ebf;" vertex="1" parent="1">
          <mxGeometry x="294" y="256" width="116" height="40" as="geometry" />
        </mxCell>
        <mxCell id="FuRZnOC1qH6Nku-hnWcX-10" value="" style="edgeStyle=orthogonalEdgeStyle;rounded=0;orthogonalLoop=1;jettySize=auto;html=1;exitX=0.5;exitY=1;exitDx=0;exitDy=0;" edge="1" parent="1" source="FuRZnOC1qH6Nku-hnWcX-13" target="FuRZnOC1qH6Nku-hnWcX-9">
          <mxGeometry relative="1" as="geometry">
            <mxPoint x="352" y="373" as="sourcePoint" />
          </mxGeometry>
        </mxCell>
        <mxCell id="FuRZnOC1qH6Nku-hnWcX-12" value="" style="edgeStyle=orthogonalEdgeStyle;rounded=0;orthogonalLoop=1;jettySize=auto;html=1;" edge="1" parent="1" source="FuRZnOC1qH6Nku-hnWcX-9" target="FuRZnOC1qH6Nku-hnWcX-11">
          <mxGeometry relative="1" as="geometry" />
        </mxCell>
        <mxCell id="FuRZnOC1qH6Nku-hnWcX-9" value="风险降低" style="rounded=0;whiteSpace=wrap;html=1;" vertex="1" parent="1">
          <mxGeometry x="294" y="416" width="116" height="40" as="geometry" />
        </mxCell>
        <mxCell id="FuRZnOC1qH6Nku-hnWcX-29" style="edgeStyle=orthogonalEdgeStyle;rounded=0;orthogonalLoop=1;jettySize=auto;html=1;exitX=0.5;exitY=1;exitDx=0;exitDy=0;entryX=0;entryY=0.5;entryDx=0;entryDy=0;" edge="1" parent="1" source="FuRZnOC1qH6Nku-hnWcX-11" target="FuRZnOC1qH6Nku-hnWcX-2">
          <mxGeometry relative="1" as="geometry">
            <Array as="points">
              <mxPoint x="352" y="537" />
              <mxPoint x="147" y="537" />
              <mxPoint x="147" y="214" />
            </Array>
          </mxGeometry>
        </mxCell>
        <mxCell id="FuRZnOC1qH6Nku-hnWcX-11" value="剩余风险" style="rounded=0;whiteSpace=wrap;html=1;" vertex="1" parent="1">
          <mxGeometry x="294" y="477" width="116" height="40" as="geometry" />
        </mxCell>
        <mxCell id="FuRZnOC1qH6Nku-hnWcX-19" style="edgeStyle=orthogonalEdgeStyle;rounded=0;orthogonalLoop=1;jettySize=auto;html=1;exitX=0.5;exitY=1;exitDx=0;exitDy=0;" edge="1" parent="1" source="FuRZnOC1qH6Nku-hnWcX-13" target="FuRZnOC1qH6Nku-hnWcX-16">
          <mxGeometry relative="1" as="geometry" />
        </mxCell>
        <mxCell id="FuRZnOC1qH6Nku-hnWcX-21" style="edgeStyle=orthogonalEdgeStyle;rounded=0;orthogonalLoop=1;jettySize=auto;html=1;exitX=0.5;exitY=1;exitDx=0;exitDy=0;entryX=0.5;entryY=0;entryDx=0;entryDy=0;" edge="1" parent="1" source="FuRZnOC1qH6Nku-hnWcX-13" target="FuRZnOC1qH6Nku-hnWcX-17">
          <mxGeometry relative="1" as="geometry" />
        </mxCell>
        <mxCell id="FuRZnOC1qH6Nku-hnWcX-31" value="不可" style="edgeLabel;html=1;align=center;verticalAlign=middle;resizable=0;points=[];" vertex="1" connectable="0" parent="FuRZnOC1qH6Nku-hnWcX-21">
          <mxGeometry x="-0.8836" y="1" relative="1" as="geometry">
            <mxPoint as="offset" />
          </mxGeometry>
        </mxCell>
        <mxCell id="FuRZnOC1qH6Nku-hnWcX-22" style="edgeStyle=orthogonalEdgeStyle;rounded=0;orthogonalLoop=1;jettySize=auto;html=1;exitX=1;exitY=0.5;exitDx=0;exitDy=0;" edge="1" parent="1" source="FuRZnOC1qH6Nku-hnWcX-13" target="FuRZnOC1qH6Nku-hnWcX-18">
          <mxGeometry relative="1" as="geometry" />
        </mxCell>
        <mxCell id="FuRZnOC1qH6Nku-hnWcX-30" value="可以" style="edgeLabel;html=1;align=center;verticalAlign=middle;resizable=0;points=[];" vertex="1" connectable="0" parent="FuRZnOC1qH6Nku-hnWcX-22">
          <mxGeometry x="-0.7032" y="1" relative="1" as="geometry">
            <mxPoint y="1" as="offset" />
          </mxGeometry>
        </mxCell>
        <mxCell id="FuRZnOC1qH6Nku-hnWcX-13" value="可否接受" style="rhombus;whiteSpace=wrap;html=1;fillColor=#fff2cc;strokeColor=#d6b656;" vertex="1" parent="1">
          <mxGeometry x="276" y="331" width="152" height="45" as="geometry" />
        </mxCell>
        <mxCell id="FuRZnOC1qH6Nku-hnWcX-27" style="edgeStyle=orthogonalEdgeStyle;rounded=0;orthogonalLoop=1;jettySize=auto;html=1;exitX=0;exitY=0.5;exitDx=0;exitDy=0;entryX=0;entryY=0.5;entryDx=0;entryDy=0;" edge="1" parent="1" source="FuRZnOC1qH6Nku-hnWcX-14" target="FuRZnOC1qH6Nku-hnWcX-1">
          <mxGeometry relative="1" as="geometry">
            <Array as="points">
              <mxPoint x="294" y="563" />
              <mxPoint x="114" y="563" />
              <mxPoint x="114" y="151" />
            </Array>
          </mxGeometry>
        </mxCell>
        <mxCell id="FuRZnOC1qH6Nku-hnWcX-14" value="风险监控" style="rounded=0;whiteSpace=wrap;html=1;fillColor=#dae8fc;strokeColor=#6c8ebf;" vertex="1" parent="1">
          <mxGeometry x="294" y="545" width="116" height="40" as="geometry" />
        </mxCell>
        <mxCell id="FuRZnOC1qH6Nku-hnWcX-23" style="edgeStyle=orthogonalEdgeStyle;rounded=0;orthogonalLoop=1;jettySize=auto;html=1;exitX=0.5;exitY=1;exitDx=0;exitDy=0;entryX=0;entryY=0.5;entryDx=0;entryDy=0;" edge="1" parent="1" source="FuRZnOC1qH6Nku-hnWcX-16" target="FuRZnOC1qH6Nku-hnWcX-11">
          <mxGeometry relative="1" as="geometry" />
        </mxCell>
        <mxCell id="FuRZnOC1qH6Nku-hnWcX-16" value="风险降低" style="rounded=0;whiteSpace=wrap;html=1;" vertex="1" parent="1">
          <mxGeometry x="160" y="416" width="116" height="40" as="geometry" />
        </mxCell>
        <mxCell id="FuRZnOC1qH6Nku-hnWcX-24" style="edgeStyle=orthogonalEdgeStyle;rounded=0;orthogonalLoop=1;jettySize=auto;html=1;exitX=0.5;exitY=1;exitDx=0;exitDy=0;entryX=1;entryY=0.5;entryDx=0;entryDy=0;" edge="1" parent="1" source="FuRZnOC1qH6Nku-hnWcX-17" target="FuRZnOC1qH6Nku-hnWcX-11">
          <mxGeometry relative="1" as="geometry" />
        </mxCell>
        <mxCell id="FuRZnOC1qH6Nku-hnWcX-17" value="风险降低" style="rounded=0;whiteSpace=wrap;html=1;" vertex="1" parent="1">
          <mxGeometry x="443" y="416" width="116" height="40" as="geometry" />
        </mxCell>
        <mxCell id="FuRZnOC1qH6Nku-hnWcX-25" style="edgeStyle=orthogonalEdgeStyle;rounded=0;orthogonalLoop=1;jettySize=auto;html=1;exitX=0.5;exitY=1;exitDx=0;exitDy=0;entryX=1;entryY=0.5;entryDx=0;entryDy=0;" edge="1" parent="1" source="FuRZnOC1qH6Nku-hnWcX-18" target="FuRZnOC1qH6Nku-hnWcX-14">
          <mxGeometry relative="1" as="geometry" />
        </mxCell>
        <mxCell id="FuRZnOC1qH6Nku-hnWcX-18" value="风险降低" style="rounded=0;whiteSpace=wrap;html=1;" vertex="1" parent="1">
          <mxGeometry x="575" y="418" width="116" height="40" as="geometry" />
        </mxCell>
      </root>
    </mxGraphModel>
  </diagram>
</mxfile>
